PathFileType	4	(X/Y/Z)	path1_02_0-1346.trc
DataRate	CameraRate	NumFrames	NumMarkers	Units	OrigDataRate	OrigDataStartFrame	OrigNumFrames
30	30	8	22	m	30	0	1346
Frame#	Time	Hip			RHip			RKnee			RAnkle			RBigToe			RSmallToe			RHeel			LHip			LKnee			LAnkle			LBigToe			LSmallToe			LHeel			Neck			Head			Nose			RShoulder			RElbow			RWrist			LShoulder			LElbow			LWrist		
		X1	Y1	Z1	X2	Y2	Z2	X3	Y3	Z3	X4	Y4	Z4	X5	Y5	Z5	X6	Y6	Z6	X7	Y7	Z7	X8	Y8	Z8	X9	Y9	Z9	X10	Y10	Z10	X11	Y11	Z11	X12	Y12	Z12	X13	Y13	Z13	X14	Y14	Z14	X15	Y15	Z15	X16	Y16	Z16	X17	Y17	Z17	X18	Y18	Z18	X19	Y19	Z19	X20	Y20	Z20	X21	Y21	Z21	X22	Y22	Z22
1	0.0333333333333333	-1.657120511598866	0.8116235785611365	0.2619882236122406	-1.6562918216878184	0.8016192696319326	0.347647520500566	-1.673261837276168	0.4675592564467496	0.3128216107398925	-1.7084208010816053	0.1153350713565848	0.3184143831705914	-1.5280906753045111	0.03240324120938512	0.3419438290225999	-1.5595686779511444	0.01969067630388976	0.39833625094580954	-1.7487426664775918	0.05326330452925391	0.3267491284961306	-1.6493282674839218	0.7948787672691645	0.1891562067188459	-1.6790025925646563	0.45372098631863855	0.20967292924406208	-1.7079604524022578	0.10856438065041649	0.15662421965315043	-1.5375595797826926	0.025601497097242784	0.1293379819000778	-1.566957196434123	0.010320101887118889	0.10036768942672633	-1.7537252249194408	0.02357282342346477	0.19344072129721965	-1.6362368232791142	1.4510811176286884	0.21433004233690156	-1.5589592954285296	1.7340357015448278	0.27303418514512007	-1.5038724662193363	1.5820175945461936	0.2298171874815965	-1.6761718288707788	1.3536961171688107	0.37201841716888623	-1.6788417138317866	1.0582769279771445	0.4003673318619696	-1.6072721798147775	0.8576153210293869	0.42553863713151147	-1.672596398927097	1.3451498818113257	0.03311747493569853	-1.6697133612898716	1.0362041377697462	0.10420007805796343	-1.5574204567483951	0.8591243747849829	0.06784539171239949
2	0.0666666666666666	-1.6558864321745375	0.814067202217242	0.2597129600729621	-1.6554071842527172	0.8038455628417395	0.34573385718843413	-1.6736406728995414	0.470281528265166	0.3115159459206957	-1.7076817699763156	0.11763717826273645	0.3190704137854402	-1.5357746148886107	0.03224727074383659	0.33896074289814704	-1.563372671567174	0.02109067872026574	0.39670568895786196	-1.747940699004938	0.05363164482386027	0.32521502434228866	-1.6466268698467958	0.7966257395298644	0.18891847628674047	-1.669862413225671	0.4533253789532914	0.20389970770131088	-1.7017686270759804	0.10740817469683735	0.16191389610309598	-1.5372015773927015	0.021603708820779173	0.13266895455399733	-1.5586440307833738	0.016803329978609755	0.09792793768684176	-1.7538089178211131	0.027666161925902814	0.18607467392556487	-1.6361492135458537	1.45101388476952	0.21586150409827598	-1.5585240184699105	1.7308791021965708	0.272722293883061	-1.5042477095633033	1.581324991985492	0.2356485680040162	-1.6792780139214651	1.355579107374771	0.36918677583187115	-1.6786228116525215	1.0598411170640163	0.3970961466883908	-1.5965836407716527	0.8597205754051934	0.43897536063215015	-1.6690844652164947	1.3453881352889188	0.03641859293327254	-1.6672894117231312	1.0367794511314692	0.10556824126560263	-1.5547485156145215	0.8584270397782163	0.06769025702696578
3	0.1	-1.6548387145717443	0.8161550666409101	0.25786728234855477	-1.6547190650198205	0.8056702900488439	0.3442504069513109	-1.6740051832916647	0.47266400005846515	0.3105808499380344	-1.7070370921408824	0.1194900984859611	0.3197387572510631	-1.541980070742745	0.03211464787243724	0.3366060510182777	-1.5665888588505794	0.02225939255618118	0.3952935510591031	-1.7472322675831276	0.05394981781477871	0.32405718967779396	-1.6443420060054244	0.7981146196395135	0.18872400197338107	-1.6612486405472011	0.4522640365141726	0.19771564024681024	-1.695386133428155	0.10659328122653557	0.16729236343803666	-1.5368026870470741	0.01823188339959766	0.135331110957992	-1.5512476351464617	0.02215572034704792	0.09669966087165502	-1.7538107815834016	0.030842720483602978	0.18026297175005995	-1.6361365319018883	1.45091777835898	0.21699780743946284	-1.558388051471695	1.7283591373892173	0.27245845864249785	-1.5045943080016246	1.5807983585169174	0.240429501693855	-1.6817328157711844	1.3571468643626305	0.36698598172637437	-1.6783835324665197	1.0611175724332575	0.3945559210112066	-1.5880359210992472	0.8615169426519073	0.4497332378808654	-1.6663159061105588	1.3454689265900768	0.0397726572618626	-1.665233271432709	1.0373104884106994	0.10673525531132935	-1.5524754584312175	0.8579205509582378	0.06759944670655274
4	0.1333333333333333	-1.6541080085895075	0.8177195544691779	0.2566334496325049	-1.654304039021165	0.8069557635204457	0.3433488243723907	-1.6743008317827828	0.47450619933982247	0.3101691034575874	-1.706491948199378	0.12066772647612117	0.3203485404462561	-1.545996430812977	0.03204028359926684	0.3351707154247299	-1.5693068443410338	0.023277963008484285	0.3939666830773457	-1.7466605448134171	0.05414632649200693	0.32336866857611585	-1.6428100983973515	0.7992634189422883	0.18853338669677688	-1.653953659484662	0.4505213798174622	0.19147009871986934	-1.6892872905646599	0.10620209848623414	0.1723679325877803	-1.5363843463049107	0.01583352242847288	0.1365201485360071	-1.5458424280703353	0.02563319286457508	0.09671168198221172	-1.753727596255592	0.03276495072897305	0.17655913365252554	-1.6362270339027831	1.4507996462472348	0.2176279821592577	-1.558595629154443	1.7268136696151561	0.272191066946017	-1.504897238059538	1.580510996330741	0.24354042336114068	-1.6832345711449224	1.3582408703497175	0.3656902068094568	-1.6781294202775885	1.0619602633243796	0.3931130540467037	-1.5825865995219062	0.8628840414065396	0.4566983500259759	-1.6646867479231542	1.3452592375351673	0.043516826082244796	-1.6637825060552573	1.0377504530716655	0.10758489150220675	-1.550835843443312	0.8576697187590385	0.06760265915586958
5	0.1666666666666666	-1.653741103487234	0.8187837719159508	0.25596020453787177	-1.654132791056724	0.8078073293278403	0.34290344382759574	-1.6744684165148855	0.47578283807322286	0.31017773744158905	-1.7059942023847297	0.12121508166209498	0.3208202833275862	-1.5479375384338512	0.03204913018354187	0.3345763412756187	-1.5718856850389553	0.024376269356092294	0.39252076434766053	-1.746182236748879	0.0541657252607163	0.323050291691059	-1.6421967501263837	0.8001430895798621	0.1882600977640285	-1.6487536401052287	0.4486468425963561	0.18606909532521393	-1.68445210595276	0.10605901227612316	0.17638189453185057	-1.535998084834296	0.01444571857412229	0.13588325031408308	-1.543223882163831	0.02706309615350665	0.09713142276944764	-1.7536152456861853	0.03362835130948887	0.1746480155349923	-1.6364147689508584	1.450679665388105	0.21789427260162256	-1.5589920758426399	1.7262284865542317	0.27170339336690497	-1.505160240864704	1.580460397695896	0.24492534229535684	-1.6838905286328159	1.358875645408472	0.36520812387242946	-1.6778905087462144	1.062390527052588	0.39274042477748533	-1.579912477076689	0.863896131939384	0.4603357118351563	-1.6641351712820012	1.3446809909668826	0.04813893159027325	-1.6629480977838706	1.0380738669152243	0.1080990367763951	-1.5498469415313938	0.8576295465424381	0.06770064577219237
6	0.2	-1.6537033019669067	0.8194413785618321	0.2557000382112485	-1.654130094701765	0.8083874040223575	0.3427017080460752	-1.6744975565669762	0.4765887427513173	0.31041109783514703	-1.7055081514992703	0.12132668243174852	0.32114674736227194	-1.5483402270652085	0.032152143948556255	0.3345642143601311	-1.5742009261475582	0.02556459462010475	0.3910946283179915	-1.745723737625082	0.05401017822834639	0.3229888951736978	-1.642442439522178	0.8008424911574478	0.1878582651510967	-1.645808818958509	0.4471756668735465	0.18216782491633168	-1.6816861864951431	0.10590871747860459	0.1787536874805872	-1.5356879405192716	0.013885998558183446	0.13404815739627418	-1.5436632234010241	0.02668682923355337	0.09708294124069294	-1.7535250203422283	0.03382563357758989	0.17394725116530318	-1.6366796943709998	1.450565519325269	0.21802003985697577	-1.5594258640770504	1.7263569158280252	0.2707585933027493	-1.5054078290829807	1.5806074893028241	0.24499865729561235	-1.6840129387417795	1.3591392185080964	0.3652935302379669	-1.6776871000590707	1.0625037330507447	0.3932017431983947	-1.579091217874831	0.8646799619883797	0.46175770975169556	-1.6643201937403647	1.3437877949150223	0.05364847287913818	-1.6625664418490487	1.0382902384179213	0.10832384823814914	-1.5493962778422283	0.8577179414610475	0.06789558532913438
7	0.2333333333333333	-1.6539001227446926	0.8197631362258248	0.25569425322759587	-1.654194882285198	0.80878321071638	0.3425957938817857	-1.67441197730448	0.4770493778950973	0.31073323228170824	-1.7050474550680128	0.12120966390504802	0.3213806772274081	-1.5478438628445126	0.03234415187333026	0.3348426586007971	-1.5756957650282064	0.026566949658252993	0.39007556267370275	-1.7453015865354837	0.05375969208947136	0.32309357441372444	-1.6432853155138487	0.8013699949644211	0.18736250050920344	-1.644586886602221	0.44630479368891046	0.17983357835497293	-1.681233952222314	0.10558781276648667	0.1793743393915711	-1.5354688237760468	0.013885294777054582	0.13211418812940057	-1.5470049113362552	0.02494651015420321	0.09593203153306686	-1.7534800158256538	0.03373652750172255	0.17388634834022534	-1.6369811940216334	1.4504559964221946	0.2182006639949553	-1.559815308004324	1.72685076834156	0.26933156543562253	-1.5056695797247042	1.5808715654410175	0.24434099340298943	-1.6838946948477802	1.3591236254434917	0.3656956206162987	-1.6774896697663444	1.062386042787643	0.3941774329407096	-1.579212780348883	0.8653038337724352	0.4620160599373956	-1.6648420761775802	1.3428569183850225	0.05871108522379429	-1.6624423510600708	1.038404881466903	0.10833228124815354	-1.5493467230120115	0.8578458929880601	0.06819781224837954
8	0.2666666666666666	-1.6542038370523846	0.8197847208124629	0.2558124283678887	-1.6542370511211932	0.8089613086742082	0.3425347718095575	-1.6742478056122796	0.47722514876312255	0.311064674273419	-1.7046757446837584	0.12101929670186783	0.32162185490538414	-1.547014876280902	0.032577587477104424	0.335143213442739	-1.5759727601308096	0.027052222944972393	0.3897410472076219	-1.7450213790515372	0.053548962814043345	0.3233207482082602	-1.6443674900181506	0.8016246962539161	0.18687912004875065	-1.644411911779008	0.4459600156797517	0.1788285971049503	-1.682906562857943	0.10508238538717599	0.17842544111245484	-1.5353383965405334	0.014182906429240779	0.1309354924123193	-1.5525576540652155	0.02246855354146732	0.09335234874151147	-1.7534756965766376	0.03358254015692191	0.17405413482702825	-1.6372550350313424	1.4503604339956169	0.21852398524742878	-1.5601452830643163	1.7273533671660184	0.2676408354972824	-1.5059451214163686	1.581133890662159	0.24336243856695158	-1.683734096820444	1.3589297632707038	0.36621622611960325	-1.677232937625161	1.062112806120362	0.39532154998597313	-1.5796208670984213	0.8657875075107617	0.4618375505972887	-1.6653206848657842	1.34234000873733	0.060819255603381556	-1.6624185810767562	1.0383855384643568	0.10819807486825116	-1.549579381415413	0.8579099414068487	0.06858520965737358
